HIERARCHY
ROOT Hips
{
	OFFSET 0.000000 0.000000 0.000000
	CHANNELS 6 Xposition Yposition Zposition Zrotation Yrotation Xrotation 
	JOINT LHipJoint
	{
		OFFSET 0.000000 0.000000 0.000000
		CHANNELS 3 Zrotation Yrotation Xrotation
		JOINT LeftUpLeg
		{
			OFFSET 8.178360 -10.767780 5.035740
			CHANNELS 3 Zrotation Yrotation Xrotation
			JOINT LeftLeg
			{
				OFFSET 14.688660 -40.356780 0.000000
				CHANNELS 3 Zrotation Yrotation Xrotation
				JOINT LeftFoot
				{
					OFFSET 15.373200 -42.237540 0.000000
					CHANNELS 3 Zrotation Yrotation Xrotation
					JOINT LeftToeBase
					{
						OFFSET 0.945840 -2.598660 13.935300
						CHANNELS 3 Zrotation Yrotation Xrotation
						End Site
						{
							OFFSET 0.000000 0.000000 0.000000
						}
					}
				}
			}
		}
	}
	JOINT RHipJoint
	{
		OFFSET 0.000000 0.000000 0.000000
		CHANNELS 3 Zrotation Yrotation Xrotation
		JOINT RightUpLeg
		{
			OFFSET -7.833120 -10.767780 5.035740
			CHANNELS 3 Zrotation Yrotation Xrotation
			JOINT RightLeg
			{
				OFFSET -15.255180 -41.913300 0.000000
				CHANNELS 3 Zrotation Yrotation Xrotation
				JOINT RightFoot
				{
					OFFSET -15.409560 -42.337380 0.000000
					CHANNELS 3 Zrotation Yrotation Xrotation
					JOINT RightToeBase
					{
						OFFSET -0.988380 -2.715540 14.178900
						CHANNELS 3 Zrotation Yrotation Xrotation
						End Site
						{
							OFFSET 0.000000 0.000000 0.000000
						}
					}
				}
			}
		}
	}
	JOINT LowerBack
	{
		OFFSET 0.000000 0.000000 0.000000
		CHANNELS 3 Zrotation Yrotation Xrotation
		JOINT Spine
		{
			OFFSET 0.169620 12.213540 -1.160280
			CHANNELS 3 Zrotation Yrotation Xrotation
			JOINT Spine1
			{
				OFFSET 0.340320 12.293100 -0.256500
				CHANNELS 3 Zrotation Yrotation Xrotation
				JOINT Neck
				{
					OFFSET 0.000000 0.000000 0.000000
					CHANNELS 3 Zrotation Yrotation Xrotation
					JOINT Neck1
					{
						OFFSET -0.325020 10.477440 1.032120
						CHANNELS 3 Zrotation Yrotation Xrotation
						JOINT Head
						{
							OFFSET 0.624420 10.568160 -0.743820
							CHANNELS 3 Zrotation Yrotation Xrotation
							End Site
							{
								OFFSET 0.000000 0.000000 0.000000
							}
						}
					}
				}
				JOINT LeftShoulder
				{
					OFFSET 0.000000 0.000000 0.000000
					CHANNELS 3 Zrotation Yrotation Xrotation
					JOINT LeftArm
					{
						OFFSET 20.174460 7.205340 -1.867260
						CHANNELS 3 Zrotation Yrotation Xrotation
						JOINT LeftForeArm
						{
							OFFSET 29.898000 -0.000000 -0.000000
							CHANNELS 3 Zrotation Yrotation Xrotation
							JOINT LeftHand
							{
								OFFSET 20.901360 -0.000000 -0.000000
								CHANNELS 3 Zrotation Yrotation Xrotation
								JOINT LeftFingerBase
								{
									OFFSET 0.000000 0.000000 0.000000
									CHANNELS 3 Zrotation Yrotation Xrotation
									JOINT LeftHandIndex1
									{
										OFFSET 4.291560 -0.000000 -0.000000
										CHANNELS 3 Zrotation Yrotation Xrotation
										End Site
										{
											OFFSET 0.000000 0.000000 0.000000
										}
									}
								}
								JOINT LThumb
								{
									OFFSET 0.000000 0.000000 0.000000
									CHANNELS 3 Zrotation Yrotation Xrotation
									End Site
									{
										OFFSET 0.000000 0.000000 0.000000
									}
								}
							}
						}
					}
				}
				JOINT RightShoulder
				{
					OFFSET 0.000000 0.000000 0.000000
					CHANNELS 3 Zrotation Yrotation Xrotation
					JOINT RightArm
					{
						OFFSET -18.819600 8.244300 -2.427900
						CHANNELS 3 Zrotation Yrotation Xrotation
						JOINT RightForeArm
						{
							OFFSET -31.451400 -0.000000 -0.000000
							CHANNELS 3 Zrotation Yrotation Xrotation
							JOINT RightHand
							{
								OFFSET -20.665020 -0.000000 -0.000000
								CHANNELS 3 Zrotation Yrotation Xrotation
								JOINT RightFingerBase
								{
									OFFSET 0.000000 0.000000 0.000000
									CHANNELS 3 Zrotation Yrotation Xrotation
									JOINT RightHandIndex1
									{
										OFFSET -3.735180 -0.000000 -0.000000
										CHANNELS 3 Zrotation Yrotation Xrotation
										End Site
										{
											OFFSET 0.000000 0.000000 0.000000
										}
									}
								}
								JOINT RThumb
								{
									OFFSET 0.000000 0.000000 0.000000
									CHANNELS 3 Zrotation Yrotation Xrotation
									End Site
									{
										OFFSET 0.000000 0.000000 0.000000
									}
								}
							}
						}
					}
				}
			}
		}
	}
}
MOTION
Frames:	6
Frame Time:	0.0333333
87.940134 106.910172 -64.456626 -179.614123 -43.896311 178.905760 -3.243024 1.370618 2.871974 -25.720931 -1.934469 -3.799455 -0.445862 5.219055 16.938023 0.933408 -15.924175 4.586460 1.452900 7.619000 21.562700 0.898452 -0.927111 0.492221 10.459621 17.799682 -18.776646 -5.233262 -13.864097 43.336209 -0.533063 1.277565 -2.404982 -0.413400 4.127300 -11.435200 -1.686699 -0.227306 8.771650 1.461481 -0.450227 1.105992 1.475328 -0.275917 -4.505267 -10.070704 -3.378202 -15.451123 4.413639 -3.675903 18.654631 3.287500 -2.608200 12.999300 -6.004908 -1.022552 -1.672521 -83.000656 4.187991 30.670984 20.358078 -28.449005 -6.486350 -0.740230 -2.172203 4.775329 15.687657 19.439814 6.153100 -7.125000 0.000000 0.000000 -12.769000 52.038200 -2.242800 5.134414 1.249572 -1.159778 81.345885 -4.242266 18.671263 -16.975866 25.000195 -4.029547 0.426684 -0.142610 5.525437 -16.625605 8.238837 -2.544800 7.125000 0.000000 0.000000 7.084700 -21.304000 4.057100 
86.913882 106.936644 -65.826972 -179.029179 -47.712600 178.771443 -3.274229 1.451255 2.949027 -24.971428 -2.800382 -2.722353 -0.401189 5.263239 17.121267 0.863803 -18.302167 5.739390 1.596700 7.970000 22.623000 1.021924 -0.946589 0.437339 10.127508 20.478943 -17.926887 -3.711320 -12.128225 36.940810 -1.206310 5.119170 -2.049151 -0.453800 4.321700 -11.983700 -1.416098 -0.401201 8.510186 1.603409 -0.633117 1.167333 1.591028 -0.388961 -4.254810 -10.122505 -3.451327 -15.313830 4.500190 -3.733380 18.446443 3.320900 -2.605900 12.874400 -5.954604 -1.029997 -1.668274 -83.305832 3.936055 31.414396 21.061391 -29.265362 -6.924729 -0.725024 -2.197763 4.797388 15.847949 19.854225 6.329000 -7.125000 0.000000 0.000000 -12.811000 52.502500 -2.397500 5.131034 1.248573 -1.146941 81.159387 -4.213086 18.429280 -16.914858 24.921537 -3.999463 0.432019 -0.130997 5.328932 -16.670515 7.962986 -2.465400 7.125000 0.000000 0.000000 7.054800 -21.598300 3.992300 
85.800402 106.899948 -67.215360 -177.912185 -51.225743 178.139176 -3.274642 1.526057 3.038812 -24.014950 -2.951499 -1.886306 -0.367592 5.269288 17.199332 0.758839 -20.300124 6.875833 1.864100 8.577100 24.481000 1.109342 -0.929297 0.387621 10.716788 20.453659 -18.147900 -2.725374 -10.748869 32.213661 -1.924130 9.686276 -2.363974 -0.873300 5.958100 -16.662900 -0.668781 -0.433359 8.272874 1.590641 -0.577342 1.211112 1.104813 -0.379253 -4.074230 -9.565055 -3.469380 -15.049692 4.464774 -3.940252 18.317256 3.176100 -2.627600 12.747200 -5.926621 -1.052820 -1.651910 -83.008938 3.742879 32.541794 21.362173 -29.620361 -7.116723 -0.783859 -2.198085 3.624473 17.180657 19.731232 6.875300 -7.125000 0.000000 0.000000 -11.333300 52.623800 -2.148600 5.129985 1.235155 -1.144658 81.452753 -4.196924 17.685255 -16.759083 24.736773 -3.934456 0.408326 -0.137120 5.938415 -16.055905 8.001286 -2.381100 7.125000 0.000000 0.000000 7.514700 -21.584100 4.259300 
84.595488 107.068986 -68.500278 -177.803971 -54.272095 178.223298 -3.269764 1.592599 3.114535 -23.829094 -3.316616 -0.430727 -0.434380 5.000507 16.501343 0.690750 -20.839455 7.474633 1.784400 8.401700 23.940900 1.071721 -0.883935 0.373502 11.378193 17.738309 -19.599795 -2.128746 -9.843999 29.270435 -2.152769 13.652580 1.942701 -0.208800 2.942200 -8.118000 -0.953959 -0.288884 8.321830 1.682899 -0.410086 1.183423 1.385337 -0.305549 -4.196770 -9.568384 -3.404585 -15.047482 4.240777 -3.797714 18.346289 3.098400 -2.586300 12.740800 -5.912965 -1.088408 -1.651011 -83.242826 3.733985 32.934742 21.390785 -29.644601 -7.144588 -0.728528 -2.216223 3.616224 16.458044 19.870716 6.602700 -7.125000 0.000000 0.000000 -12.168800 52.641300 -2.316000 5.143881 1.205240 -1.153749 80.781353 -4.312870 18.853751 -16.691567 24.628411 -3.898823 0.429486 -0.115906 4.497674 -16.362971 7.700953 -2.337100 7.125000 0.000000 0.000000 7.287200 -21.892500 4.076900 
83.392980 107.193504 -69.690756 -177.747686 -57.174172 178.423679 -3.259104 1.647772 3.167844 -23.717014 -3.752276 0.726094 -0.474187 4.837559 16.093878 0.621067 -21.180718 8.333681 1.540900 7.836100 22.217300 1.034827 -0.835152 0.359998 12.381664 14.940508 -21.067998 -1.768313 -9.247401 27.359342 -2.240113 16.467754 4.162225 -0.206200 2.923700 -8.066500 -0.929420 -0.148101 8.535254 1.575143 -0.209638 1.081786 1.130621 -0.211282 -4.523259 -9.948775 -3.475712 -15.356659 4.777666 -3.821065 18.796418 3.406800 -2.582000 13.063100 -5.937862 -1.051684 -1.670736 -83.067626 4.055420 32.601206 21.225828 -29.461163 -7.047401 -0.708108 -2.165890 3.883170 16.056861 19.181147 6.225900 -7.125000 0.000000 0.000000 -12.293200 51.828700 -2.093300 5.127178 1.242437 -1.155182 81.109951 -4.274762 17.396056 -16.566864 24.471300 -3.842980 0.406383 -0.145253 6.138079 -16.033642 8.037929 -2.390400 7.125000 0.000000 0.000000 7.530300 -21.540000 4.275900 
82.074372 107.401044 -70.980492 -178.647091 -60.521442 179.201528 -3.218214 1.720395 3.196548 -23.870930 -4.925685 2.425939 -0.510798 4.731940 15.901475 0.483937 -21.186258 11.654148 2.604600 10.025700 29.059900 0.993479 -0.854635 0.351969 12.642684 13.709250 -21.300891 -1.549078 -8.886341 26.177869 -2.223127 16.331866 4.790293 -0.183800 2.761500 -7.615400 -1.799950 -0.039793 8.523779 1.545087 -0.166723 1.201722 1.476445 -0.197642 -4.346305 -9.808225 -3.536938 -15.150305 4.622565 -3.881486 18.390007 3.292500 -2.581900 12.820100 -5.992770 -1.075335 -1.657362 -83.349037 3.823068 31.552460 20.593912 -28.698779 -6.590556 -0.922665 -2.364852 3.994131 18.238775 22.290480 8.203500 -7.125000 0.000000 0.000000 -11.324200 55.592100 -2.971300 5.160180 1.218336 -1.148400 81.105022 -4.079839 16.617714 -16.548367 24.438327 -3.828279 0.412460 -0.156172 7.105478 -16.379620 8.063358 -2.453300 7.125000 0.000000 0.000000 7.273000 -21.494000 4.135100 
